<?xml version="1.0" encoding="UTF-8" standalone="no"?>
<!-- Created with Inkscape (http://www.inkscape.org/) -->

<svg
   xmlns:dc="http://purl.org/dc/elements/1.1/"
   xmlns:cc="http://creativecommons.org/ns#"
   xmlns:rdf="http://www.w3.org/1999/02/22-rdf-syntax-ns#"
   xmlns:svg="http://www.w3.org/2000/svg"
   xmlns="http://www.w3.org/2000/svg"
   xmlns:sodipodi="http://sodipodi.sourceforge.net/DTD/sodipodi-0.dtd"
   xmlns:inkscape="http://www.inkscape.org/namespaces/inkscape"
   width="210mm"
   height="297mm"
   viewBox="0 0 744.09448819 1052.3622047"
   id="svg2"
   version="1.1"
   inkscape:version="0.91 r13725"
   sodipodi:docname="ibituruna.svg">
  <defs
     id="defs4" />
  <sodipodi:namedview
     id="base"
     pagecolor="#ffffff"
     bordercolor="#666666"
     borderopacity="1.0"
     inkscape:pageopacity="0.0"
     inkscape:pageshadow="2"
     inkscape:zoom="0.24748737"
     inkscape:cx="-35.797067"
     inkscape:cy="288.48472"
     inkscape:document-units="px"
     inkscape:current-layer="layer1"
     showgrid="false"
     showguides="false"
     inkscape:window-width="1366"
     inkscape:window-height="705"
     inkscape:window-x="-8"
     inkscape:window-y="-8"
     inkscape:window-maximized="1" />
  <metadata
     id="metadata7">
    <rdf:RDF>
      <cc:Work
         rdf:about="">
        <dc:format>image/svg+xml</dc:format>
        <dc:type
           rdf:resource="http://purl.org/dc/dcmitype/StillImage" />
        <dc:title></dc:title>
      </cc:Work>
    </rdf:RDF>
  </metadata>
  <g
     inkscape:label="Camada 1"
     inkscape:groupmode="layer"
     id="layer1">
    <g
       id="layer1-6"
       inkscape:label="Camada 1"
       transform="matrix(1.0009165,0.01966993,-0.01966993,1.0009165,8.5753355,-6.7711149)">
      <path
         sodipodi:nodetypes="ccccccc"
         inkscape:connector-curvature="0"
         id="path3347"
         d="M 700.17363,207.91868 724.65735,327.78601 707.87332,1036.1449 123.2998,1041.8093 13.833583,274.32047 121.95581,150.96087 Z"
         style="fill:#64201c;fill-opacity:1;fill-rule:evenodd;stroke:#000000;stroke-width:2.49873447px;stroke-linecap:butt;stroke-linejoin:miter;stroke-opacity:1" />
      <path
         sodipodi:nodetypes="ccccc"
         inkscape:connector-curvature="0"
         id="path3349"
         d="m 15.213135,273.41455 709.434635,54.23349 -15.42864,707.39746 -584.52884,5.9387 z"
         style="fill:#7c2b25;fill-opacity:1;fill-rule:evenodd;stroke:#000000;stroke-width:2.49873447px;stroke-linecap:butt;stroke-linejoin:miter;stroke-opacity:1" />
      <path
         sodipodi:nodetypes="cccccc"
         inkscape:connector-curvature="0"
         id="path3351"
         d="m 172.08519,189.54823 -1.98938,-178.866644 50.24932,7.954144 3.48804,175.50621 c -15.83882,3.8799 -24.10035,4.85671 -26.99015,3.77536 -11.0575,-0.82566 -17.68946,-4.75017 -24.75783,-8.36907 z"
         style="fill:#cbb9b7;fill-opacity:1;fill-rule:evenodd;stroke:#000000;stroke-width:2.49873447px;stroke-linecap:butt;stroke-linejoin:miter;stroke-opacity:1" />
      <path
         sodipodi:nodetypes="cccccc"
         inkscape:connector-curvature="0"
         id="path3353"
         d="m 172.27108,11.003792 5.64204,0.934706 4.74672,182.712752 c -2.27434,-0.87751 -6.24352,-2.91708 -6.24352,-2.91708 0,0 -2.71383,-119.933768 -4.14524,-180.730448 z"
         style="fill:#9b5664;fill-opacity:1;fill-rule:evenodd;stroke:#000000;stroke-width:2.49873447px;stroke-linecap:butt;stroke-linejoin:miter;stroke-opacity:1" />
      <path
         sodipodi:nodetypes="ccccc"
         inkscape:connector-curvature="0"
         id="path3370"
         d="m 209.19979,197.32866 -4.16161,-181.136743 8.65365,1.405611 4.27653,177.948352 z"
         style="fill:#965762;fill-opacity:1;fill-rule:evenodd;stroke:#000000;stroke-width:2.49873447px;stroke-linecap:butt;stroke-linejoin:miter;stroke-opacity:1" />
      <path
         sodipodi:nodetypes="ccccc"
         inkscape:connector-curvature="0"
         id="path3372"
         d="m 449.20767,247.02104 262.69359,15.96322 -12.82827,-55.7261 -244.081,-23.55538 c -1.86956,21.02149 -3.90794,42.29736 -5.78432,63.31826 z"
         style="fill:#bab6ab;fill-opacity:1;fill-rule:evenodd;stroke:#000000;stroke-width:2.49873447px;stroke-linecap:butt;stroke-linejoin:miter;stroke-opacity:1" />
      <path
         sodipodi:nodetypes="cccccccccccccccccccc"
         inkscape:connector-curvature="0"
         id="path3374"
         d="M 83.742223,757.79843 C 407.84486,514.29722 569.91737,557.3289 720.56668,576.61949 l -2.12555,-38.82038 -34.80059,-6.13629 c 5.87827,-10.92434 5.8968,-22.88194 6.13627,-34.8006 -3.12964,-15.99193 -9.92565,-33.74013 -21.27906,-31.94551 -41.78915,6.59728 -48.38307,-11.46682 -74.66364,-47.5571 -15.80842,-35.54361 -46.35867,-76.03138 -77.49301,-77.94928 -27.34753,6.79035 -48.49263,21.72537 -63.08646,45.26304 -15.45658,-32.0698 -31.87641,-14.83853 -48.03394,-11.03274 13.2619,-62.2937 -41.01697,-40.44213 -48.18106,-17.46623 3.7563,-40.24353 -70.55534,-45.90374 -48.39719,5.56299 -30.20823,-26.32209 -73.00286,-10.31482 -44.22716,25.52107 -21.13075,-4.43787 -28.14686,4.83086 -20.39338,28.44214 -12.347,-4.08559 -69.97798,11.26674 -81.10627,91.00331 -11.19272,3.75663 -27.16716,-7.68205 -46.81688,31.25222 -51.931117,1.38575 -38.226812,30.30485 -32.891138,55.71336 l 40.363578,54.53346 -52.413962,35.61123 z"
         style="fill:#bfb6af;fill-opacity:1;fill-rule:evenodd;stroke:#000000;stroke-width:2.49873447px;stroke-linecap:butt;stroke-linejoin:miter;stroke-opacity:1" />
      <path
         sodipodi:nodetypes="cccccccccccccc"
         inkscape:connector-curvature="0"
         id="path3390"
         d="m 487.54224,644.46026 -6.29553,-58.7785 c 24.82275,30.47976 51.29513,62.29794 89.38976,103.54603 10.87075,-54.69173 20.16492,-77.99 29.74034,-106.88903 3.88044,49.39835 19.00346,87.02799 35.25558,123.47561 18.64047,-27.2561 42.8312,-53.53349 69.73465,-79.33261 l -10.2221,94.31159 18.56812,-10.82268 2.19606,20.2508 -39.46726,82.10656 -11.73378,1.13484 -102.32133,-41.10939 -7.86561,-46.24013 z"
         style="fill:#969c30;fill-opacity:1;fill-rule:evenodd;stroke:#000000;stroke-width:2.49873447px;stroke-linecap:butt;stroke-linejoin:miter;stroke-opacity:1" />
      <path
         sodipodi:nodetypes="ccccccc"
         inkscape:connector-curvature="0"
         id="path3386"
         d="m 417.64725,884.59545 c -44.01856,18.64821 -103.27452,-11.62641 -164.50128,-48.2288 l 52.12583,-4.90553 c -30.72248,-21.0148 -49.03142,-45.11597 -72.6064,-67.90785 20.20331,6.55257 38.74817,10.73676 60.60983,19.65777 60.76301,14.64466 118.5758,29.80178 117.12781,55.25386 2.51102,15.32711 23.47861,21.1265 7.24421,46.13055 z"
         style="fill:#859332;fill-opacity:1;fill-rule:evenodd;stroke:#000000;stroke-width:2.49873447px;stroke-linecap:butt;stroke-linejoin:miter;stroke-opacity:1" />
      <path
         sodipodi:nodetypes="ccccccscccc"
         inkscape:connector-curvature="0"
         id="path3380"
         d="m 408.19141,834.23754 c 19.20269,64.42397 5.00846,71.50068 155.51564,109.88331 13.37709,0.33648 27.58582,1.86074 35.40325,-5.74265 l -3.2994,-68.50236 3.66264,51.9066 c 4.94669,12.31629 13.19974,16.84104 24.34722,14.54527 0,0 44.54161,-8.77645 49.27382,-10.53455 8.27154,-3.07299 12.37425,-61.28051 4.74322,-63.23966 16.68363,-81.73038 -115.13503,-90.97397 -115.96686,-90.10327 -40.93713,51.47313 -110.17537,73.67671 -153.67966,61.78731 z"
         style="fill:#d59627;fill-opacity:1;fill-rule:evenodd;stroke:#000000;stroke-width:2.49873447px;stroke-linecap:butt;stroke-linejoin:miter;stroke-opacity:1" />
      <path
         sodipodi:nodetypes="ccccccccccc"
         inkscape:connector-curvature="0"
         id="path3382"
         d="m 666.57241,813.7916 c 9.36843,-3.04473 21.05744,-3.81395 5.78954,-31.01714 -31.18673,-31.90224 -25.32368,-56.01186 -6.53572,-77.40293 14.39816,-14.83465 29.51899,-19.42834 44.35477,-28.06164 0.27156,5.95539 1.58087,11.70833 -9.26376,19.83204 -6.50848,7.39999 -10.27273,15.69858 -11.12732,24.94986 9.73669,-0.14692 19.21043,0.0175 21.54999,8.60554 l 3.80143,-1.57232 c -0.22189,44.28742 -1.54079,86.07447 -2.96144,127.62985 l -34.54307,5.12242 c 4.89419,-32.84429 -4.04924,-37.59561 -11.06442,-48.08568 z"
         style="fill:#d59627;fill-opacity:1;fill-rule:evenodd;stroke:#000000;stroke-width:2.49873447px;stroke-linecap:butt;stroke-linejoin:miter;stroke-opacity:1" />
      <path
         sodipodi:nodetypes="ccccccccccc"
         inkscape:connector-curvature="0"
         id="path3384"
         d="m 669.52039,702.48065 c -2.52666,12.11207 -3.43461,25.95732 9.20831,46.70574 l -10.18422,-1.34264 c 1.06446,3.66135 -0.70809,6.82241 5.6881,11.42391 10.90242,12.73276 24.62351,22.21878 40.06826,29.71943 0.62298,-19.8437 0.0861,-46.27613 1.87862,-59.47608 l -4.78165,1.42228 c -0.84037,-7.62854 -10.90548,-8.79781 -21.92024,-9.30216 0.24212,-10.62416 11.39079,-24.72088 11.39079,-24.72088 1.13017,1.20642 11.58945,-8.0501 9.64308,-20.05049 -13.74949,8.36388 -29.0258,12.6631 -40.99105,25.62089 z"
         style="fill:#c7bbb0;fill-opacity:1;fill-rule:evenodd;stroke:#000000;stroke-width:2.49873447px;stroke-linecap:butt;stroke-linejoin:miter;stroke-opacity:1" />
      <path
         sodipodi:nodetypes="ccccccccccccc"
         inkscape:connector-curvature="0"
         id="path3378"
         d="m 286.56541,748.00032 c 140.85416,-39.51723 30.2113,-114.56412 27.84424,-141.21049 -2.13865,-13.07438 60.99807,-4.27916 107.35379,55.40273 3.76794,-26.83196 -16.23219,-52.10157 -42.15563,-76.98189 -3.18224,-5.27274 43.69715,-14.68902 87.38379,37.60938 12.90599,13.58765 29.07782,27.85861 50.03068,60.64985 25.23312,19.7723 47.14334,16.00313 69.88655,18.13525 l -33.11602,24.7554 45.2485,-8.06708 c 2.42144,4.17569 -60.39212,115.72476 -167.30995,119.95263 -91.89905,-14.72656 -121.64483,-39.51418 -150.59188,-74.8914 l 31.84442,-0.72817 z"
         style="fill:#d59424;fill-opacity:1;fill-rule:evenodd;stroke:#000000;stroke-width:2.49873447px;stroke-linecap:butt;stroke-linejoin:miter;stroke-opacity:1" />
      <path
         inkscape:connector-curvature="0"
         id="path3388"
         d="m 311.12578,738.30153 -8.64837,-23.63115 19.90632,17.92717 z"
         style="fill:none;fill-rule:evenodd;stroke:#000000;stroke-width:2.49873447px;stroke-linecap:butt;stroke-linejoin:miter;stroke-opacity:1" />
    </g>
    <ellipse
       style="fill:#c7bbb0;fill-opacity:1;stroke:#000000;stroke-width:2.46491337;stroke-opacity:1"
       id="path4189"
       cx="520.98132"
       cy="633.1402"
       rx="33.780949"
       ry="36.407616"
       transform="matrix(0.98273242,0.18503243,-0.18503243,0.98273242,0,0)" />
    <ellipse
       style="fill:#6d5f54;fill-opacity:1;stroke:#000000;stroke-width:2.04567313;stroke-opacity:1"
       id="path4191"
       cx="527.19159"
       cy="635.31122"
       rx="9.4401398"
       ry="15.012139"
       transform="matrix(0.98273242,0.18503243,-0.18503243,0.98273242,0,0)" />
    <path
       style="fill:none;fill-rule:evenodd;stroke:#000000;stroke-width:1.73351085;stroke-opacity:1"
       d="m 418.61619,743.04983 4.11082,1.79773 c 4.74056,5.97628 -40.81197,20.00612 -60.87877,13.54099 -1.00878,5.2737 3.9939,4.57216 -18.46898,31.17201 6.44792,8.73237 65.91921,32.54623 139.55,-11.5757"
       id="path4262"
       inkscape:connector-curvature="0"
       sodipodi:nodetypes="ccccc" />
    <ellipse
       style="fill:#cbc1b7;fill-opacity:1;stroke:#000000;stroke-width:2.37006903;stroke-opacity:1"
       id="path4187"
       cx="579.20587"
       cy="623.94678"
       rx="39.519478"
       ry="46.086147"
       transform="matrix(0.98273242,0.18503243,-0.18503243,0.98273242,0,0)" />
    <ellipse
       style="fill:#67584e;fill-opacity:1;stroke:#000000;stroke-width:2.48008227;stroke-opacity:1"
       id="path4191-7"
       cx="586.99078"
       cy="625.71503"
       rx="11.444802"
       ry="18.200045"
       transform="matrix(0.98273242,0.18503243,-0.18503243,0.98273242,0,0)" />
    <ellipse
       style="fill:#c3b4ad;fill-opacity:1;stroke:none;stroke-width:1.07764864;stroke-opacity:1"
       id="path4208"
       cx="534.03082"
       cy="634.4986"
       rx="2.5929403"
       ry="5.4660025"
       transform="matrix(0.98273242,0.18503243,-0.18503243,0.98273242,0,0)" />
    <ellipse
       style="fill:#c3b4ad;fill-opacity:1;stroke:none;stroke-width:1.07764864;stroke-opacity:1"
       id="path4208-7"
       cx="595.40363"
       cy="624.60339"
       rx="2.5929403"
       ry="5.4660025"
       transform="matrix(0.98273242,0.18503243,-0.18503243,0.98273242,0,0)" />
    <path
       style="fill:#7f5939;fill-opacity:1;fill-rule:evenodd;stroke:#000000;stroke-width:1.73351085px;stroke-linecap:butt;stroke-linejoin:miter;stroke-opacity:1"
       d="m 473.59129,675.1647 c 9.19678,-2.56266 5.84676,-3.79857 7.34433,-5.54707 -8.76327,-13.00678 -19.58829,-21.80956 -45.82882,0.82103 -0.0246,2.02224 1.26809,3.6692 4.78846,4.6815 7.75671,-5.17966 20.16962,-16.7811 33.69603,0.0446 z"
       id="path4225"
       inkscape:connector-curvature="0"
       sodipodi:nodetypes="ccccc" />
    <path
       style="fill:#7f5939;fill-opacity:1;fill-rule:evenodd;stroke:#000000;stroke-width:1.73351085px;stroke-linecap:butt;stroke-linejoin:miter;stroke-opacity:1"
       d="m 404.30048,682.52312 c 1.41294,-0.0907 2.01097,2.04241 5.70443,-4.27159 -8.31963,-10.05107 -24.00468,-20.64955 -43.46282,6.07169 1.7172,1.65973 4.39714,3.50074 4.00336,4.763 10.64139,-9.33245 20.87191,-16.33963 33.75503,-6.5631 z"
       id="path4227"
       inkscape:connector-curvature="0"
       sodipodi:nodetypes="ccccc" />
    <path
       style="fill:#563927;fill-opacity:1;fill-rule:evenodd;stroke:#000000;stroke-width:1.73351085px;stroke-linecap:butt;stroke-linejoin:miter;stroke-opacity:1"
       d="m 343.09258,789.9391 c 10.81399,-12.19011 19.75274,-24.40729 18.83853,-31.57872 -33.64052,-25.38233 -76.0479,-2.63901 -18.83853,31.57872 z"
       id="path4233"
       inkscape:connector-curvature="0"
       sodipodi:nodetypes="ccc" />
    <path
       style="fill:none;fill-rule:evenodd;stroke:#000000;stroke-width:1.73351085px;stroke-linecap:butt;stroke-linejoin:miter;stroke-opacity:1"
       d="m 455.34473,777.31106 c 19.23977,-2.76351 40.00572,1.05894 49.51223,18.71352"
       id="path4235"
       inkscape:connector-curvature="0"
       sodipodi:nodetypes="cc" />
    <path
       style="fill:#b94d25;fill-opacity:1;fill-rule:evenodd;stroke:#000000;stroke-width:1.73351085px;stroke-linecap:butt;stroke-linejoin:miter;stroke-opacity:1"
       d="m 426.15811,800.78226 c 4.38207,6.76817 32.42766,18.24505 45.3321,7.54091 8.53679,-3.69841 25.65087,-28.91871 9.6763,-28.91553 -17.59549,7.55137 -33.98211,15.54189 -55.0084,21.37462 z"
       id="path4239"
       inkscape:connector-curvature="0"
       sodipodi:nodetypes="cccc" />
  </g>
</svg>
